<svg xmlns="http://www.w3.org/2000/svg" xmlns:svg="http://www.w3.org/2000/svg" id="svg4253" fill="none" stroke="none" stroke-linecap="square" stroke-miterlimit="10" version="1.1" viewBox="0 0 1024 768"><metadata id="metadata4326"/><clipPath id="p.0"><path id="path4256" d="m0 0l1024.0 0l0 768.0l-1024.0 0l0 -768.0z" clip-rule="nonzero"/></clipPath><g id="g4258" clip-path="url(#p.0)"><path id="path4260" fill="#000" fill-opacity="0" fill-rule="evenodd" d="m0 0l1024.0 0l0 768.0l-1024.0 0z"/><path id="path4264" fill-rule="evenodd" stroke="#000" stroke-linecap="butt" stroke-linejoin="round" stroke-width="1" d="m321.4549 87.0l438.07874 0l0 136.0l-438.07874 0z"/><path id="path4266" d="m 321.4549,455.5 438.07874,0 0,136 -438.07874,0 z" style="fill:#cfe2f3;fill-rule:evenodd;stroke:#000;stroke-opacity:1;stroke-width:3;stroke-miterlimit:10;stroke-dasharray:none"/><path id="path4268" d="m 321.4549,455.5 438.07874,0 0,136 -438.07874,0 z" style="fill-rule:evenodd;stroke:#000;stroke-width:1;stroke-linecap:butt;stroke-linejoin:round"/><path id="path4274" d="m 422.00026,223 0,86.99213" style="fill:#000;fill-opacity:0;fill-rule:evenodd"/><path id="path4276" d="m 422.00026,223 0,216.47154" style="fill-rule:evenodd;stroke:#000;stroke-width:3;stroke-linecap:butt;stroke-linejoin:round;stroke-miterlimit:10;stroke-dasharray:none"/><path id="path4278" d="m 417.04506,437.99213 4.9552,13.61429 4.9552,-13.61429 z" style="fill:#000;fill-rule:evenodd;stroke:#000;stroke-width:3;stroke-linecap:butt"/><path id="path4280" d="m 666.00025,311 0,-89.00787" style="fill:#000;fill-opacity:0;fill-rule:evenodd"/><path id="path4284" d="m 670.95545,239.99213 -4.9552,-13.61429 -4.9552,13.61429 z" style="fill:#000;fill-rule:evenodd;stroke:#000;stroke-width:3;stroke-linecap:butt"/><path id="path4286" fill="#000" fill-opacity="0" fill-rule="evenodd" d="m422.0 446.0l0 86.99213"/><path id="path4292" fill="#000" fill-opacity="0" fill-rule="evenodd" d="m661.5 533.0l0 -86.99213"/><g id="g4878"><path style="stroke:#000;stroke-opacity:1;stroke-width:3;stroke-miterlimit:10;stroke-dasharray:none" id="path4262" fill="#cfe2f3" fill-rule="evenodd" d="m321.4549 87.0l438.07874 0l0 136.0l-438.07874 0z"/><path style="fill-rule:evenodd;stroke:#000;stroke-width:3;stroke-linecap:butt;stroke-linejoin:round;stroke-miterlimit:10;stroke-dasharray:none" id="path4300" d="m 634.40383,115.73551 77.82675,0 0,62.14172 -77.82675,0 z"/></g><path style="fill-rule:evenodd;stroke:#000;stroke-width:3;stroke-linecap:butt;stroke-linejoin:round;stroke-miterlimit:10;stroke-dasharray:none" id="path4868" d="m 666.00025,239 0,216.47154"/><g id="g4874" transform="translate(0,13.361481)"><path id="path4870" d="m 383.08688,294.81765 77.82675,0 0,62.14172 -77.82675,0 z" style="fill:#fff;fill-opacity:1;fill-rule:evenodd;stroke:#000;stroke-width:3;stroke-linecap:butt;stroke-linejoin:round;stroke-miterlimit:10;stroke-dasharray:none"/><path style="fill:#fff;fill-opacity:1;fill-rule:evenodd;stroke:#000;stroke-width:3;stroke-linecap:butt;stroke-linejoin:round;stroke-miterlimit:10;stroke-dasharray:none" id="path4872" d="m 627.08688,294.81765 77.82675,0 0,62.14172 -77.82675,0 z"/></g></g></svg>