<svg xmlns="http://www.w3.org/2000/svg" xmlns:svg="http://www.w3.org/2000/svg" id="svg4253" fill="none" stroke="none" stroke-linecap="square" stroke-miterlimit="10" version="1.1" viewBox="0 0 1024 768"><metadata id="metadata4326"/><defs id="defs4324"><marker id="marker18205" orient="auto" refX="0" refY="0" style="overflow:visible"><path id="path18207" d="M 8.7185878,4.0337352 L -2.2072895,0.016013256 L 8.7185884,-4.0017078 C 6.9730900,-1.6296469 6.9831476,1.6157441 8.7185878,4.0337352 z" transform="scale(0.6) rotate(180) translate(0,0)" style="fill-rule:evenodd;stroke-width:.625;stroke-linejoin:round;stroke:#000;stroke-opacity:1;fill:#000;fill-opacity:1"/></marker><marker style="overflow:visible" id="marker15439" orient="auto" refX="0" refY="0"><path style="fill-rule:evenodd;stroke-width:.625;stroke-linejoin:round;stroke:#000;stroke-opacity:1;fill:#000;fill-opacity:1" id="path15441" d="M 8.7185878,4.0337352 L -2.2072895,0.016013256 L 8.7185884,-4.0017078 C 6.9730900,-1.6296469 6.9831476,1.6157441 8.7185878,4.0337352 z" transform="scale(0.6) rotate(180) translate(0,0)"/></marker><marker style="overflow:visible" id="marker4538" orient="auto" refX="0" refY="0"><path style="fill-rule:evenodd;stroke-width:.625;stroke-linejoin:round;stroke:#000;stroke-opacity:1;fill:#000;fill-opacity:1" id="path4540" d="M 8.7185878,4.0337352 L -2.2072895,0.016013256 L 8.7185884,-4.0017078 C 6.9730900,-1.6296469 6.9831476,1.6157441 8.7185878,4.0337352 z" transform="scale(0.6) rotate(180) translate(0,0)"/></marker><marker style="overflow:visible" id="marker4504" orient="auto" refX="0" refY="0"><path style="fill-rule:evenodd;stroke-width:.625;stroke-linejoin:round;stroke:#000;stroke-opacity:1;fill:#000;fill-opacity:1" id="path4506" d="M 8.7185878,4.0337352 L -2.2072895,0.016013256 L 8.7185884,-4.0017078 C 6.9730900,-1.6296469 6.9831476,1.6157441 8.7185878,4.0337352 z" transform="scale(0.6) rotate(180) translate(0,0)"/></marker><marker id="marker4498" orient="auto" refX="0" refY="0" style="overflow:visible"><path id="path4500" d="M 8.7185878,4.0337352 L -2.2072895,0.016013256 L 8.7185884,-4.0017078 C 6.9730900,-1.6296469 6.9831476,1.6157441 8.7185878,4.0337352 z" transform="scale(0.6) rotate(180) translate(0,0)" style="fill-rule:evenodd;stroke-width:.625;stroke-linejoin:round;stroke:#000;stroke-opacity:1;fill:#000;fill-opacity:1"/></marker><marker id="marker4494" orient="auto" refX="0" refY="0" style="overflow:visible"><path id="path4496" d="M 8.7185878,4.0337352 L -2.2072895,0.016013256 L 8.7185884,-4.0017078 C 6.9730900,-1.6296469 6.9831476,1.6157441 8.7185878,4.0337352 z" transform="scale(1.1) rotate(180) translate(1,0)" style="fill-rule:evenodd;stroke-width:.625;stroke-linejoin:round;stroke:#000;stroke-opacity:1;fill:#000;fill-opacity:1"/></marker><marker id="marker4490" orient="auto" refX="0" refY="0" style="overflow:visible"><path id="path4492" d="M 0.0,0.0 L 5.0,-5.0 L -12.5,0.0 L 5.0,5.0 L 0.0,0.0 z" transform="scale(0.8) rotate(180) translate(12.5,0)" style="fill-rule:evenodd;stroke:#000;stroke-width:1pt;stroke-opacity:1"/></marker><marker id="marker4486" orient="auto" refX="0" refY="0" style="overflow:visible"><path id="path4488" d="M 0.0,0.0 L 5.0,-5.0 L -12.5,0.0 L 5.0,5.0 L 0.0,0.0 z" transform="scale(0.8) rotate(180) translate(12.5,0)" style="fill-rule:evenodd;stroke:#000;stroke-width:1pt;stroke-opacity:1"/></marker><marker id="marker4478" orient="auto" refX="0" refY="0" style="overflow:visible"><path id="path4480" d="M 8.7185878,4.0337352 L -2.2072895,0.016013256 L 8.7185884,-4.0017078 C 6.9730900,-1.6296469 6.9831476,1.6157441 8.7185878,4.0337352 z" transform="scale(1.1) rotate(180) translate(1,0)" style="fill-rule:evenodd;stroke-width:.625;stroke-linejoin:round;stroke:#000;stroke-opacity:1"/></marker><marker id="Arrow2Mend" orient="auto" refX="0" refY="0" style="overflow:visible"><path id="path4225" d="M 8.7185878,4.0337352 L -2.2072895,0.016013256 L 8.7185884,-4.0017078 C 6.9730900,-1.6296469 6.9831476,1.6157441 8.7185878,4.0337352 z" transform="scale(0.6) rotate(180) translate(0,0)" style="fill-rule:evenodd;stroke-width:.625;stroke-linejoin:round;stroke:#000;stroke-opacity:1"/></marker><marker id="marker4472" orient="auto" refX="0" refY="0" style="overflow:visible"><path id="path4474" d="M 8.7185878,4.0337352 L -2.2072895,0.016013256 L 8.7185884,-4.0017078 C 6.9730900,-1.6296469 6.9831476,1.6157441 8.7185878,4.0337352 z" transform="scale(1.1) rotate(180) translate(1,0)" style="fill-rule:evenodd;stroke-width:.625;stroke-linejoin:round;stroke:#000;stroke-opacity:1"/></marker><marker id="Arrow1Lend" orient="auto" refX="0" refY="0" style="overflow:visible"><path id="path4201" d="M 0.0,0.0 L 5.0,-5.0 L -12.5,0.0 L 5.0,5.0 L 0.0,0.0 z" transform="scale(0.8) rotate(180) translate(12.5,0)" style="fill-rule:evenodd;stroke:#000;stroke-width:1pt;stroke-opacity:1"/></marker><marker id="Arrow2Lend" orient="auto" refX="0" refY="0" style="overflow:visible"><path id="path4219" d="M 8.7185878,4.0337352 L -2.2072895,0.016013256 L 8.7185884,-4.0017078 C 6.9730900,-1.6296469 6.9831476,1.6157441 8.7185878,4.0337352 z" transform="scale(1.1) rotate(180) translate(1,0)" style="fill-rule:evenodd;stroke-width:.625;stroke-linejoin:round;stroke:#000;stroke-opacity:1;fill:#000;fill-opacity:.92485549"/></marker></defs><clipPath id="p.0"><path id="path4256" d="m0 0l1024.0 0l0 768.0l-1024.0 0l0 -768.0z" clip-rule="nonzero"/></clipPath><g id="g4258" clip-path="url(#p.0)"><path id="path4260" fill="#000" fill-opacity="0" fill-rule="evenodd" d="m0 0l1024.0 0l0 768.0l-1024.0 0z"/><flowRoot style="font-style:normal;font-weight:400;font-size:17.5px;line-height:125%;font-family:sans-serif;text-align:end;letter-spacing:0;word-spacing:0;text-anchor:end;fill:#000;fill-opacity:1;stroke:none;stroke-width:1px;stroke-linecap:butt;stroke-linejoin:miter;stroke-opacity:1" id="flowRoot4919" transform="translate(-209.17997,259.19954)" xml:space="preserve"><flowRegion id="flowRegion4921"><rect id="rect4923" width="197.141" height="40.632" x="382.243" y="108.857"/></flowRegion><flowPara id="flowPara4925" style="font-weight:700">actuator</flowPara></flowRoot><flowRoot id="flowRoot4927" transform="translate(205.00388,259.19954)" xml:space="preserve" style="font-style:normal;font-weight:400;font-size:17.5px;line-height:125%;font-family:sans-serif;text-align:end;letter-spacing:0;word-spacing:0;text-anchor:end;fill:#000;fill-opacity:1;stroke:none;stroke-width:1px;stroke-linecap:butt;stroke-linejoin:miter;stroke-opacity:1"><flowRegion id="flowRegion4929"><rect id="rect4931" width="197.141" height="40.632" x="382.243" y="108.857"/></flowRegion><flowPara id="flowPara4933" style="font-weight:700">sensor</flowPara></flowRoot><path id="path4264" d="m 320.23536,131 438.07874,0 0,136 -438.07874,0 z" style="fill-rule:evenodd;stroke:#000;stroke-width:1;stroke-linecap:butt;stroke-linejoin:round"/><path id="path4266" d="m 320.23536,499.5 438.07874,0 0,136 -438.07874,0 z" style="fill:#cfe2f3;fill-rule:evenodd;stroke:#000;stroke-width:3;stroke-miterlimit:10;stroke-dasharray:none;stroke-opacity:1"/><path id="path4268" d="m 320.23536,499.5 438.07874,0 0,136 -438.07874,0 z" style="fill-rule:evenodd;stroke:#000;stroke-width:1;stroke-linecap:butt;stroke-linejoin:round"/><path id="path4274" d="m 420.78072,267 0,86.99213" style="fill:#000;fill-opacity:0;fill-rule:evenodd"/><path id="path4286" d="m 420.78046,490 0,86.99213" style="fill:#000;fill-opacity:0;fill-rule:evenodd"/><path id="path4262" d="m 320.23536,131 438.07874,0 0,136 -438.07874,0 z" style="fill:#cfe2f3;fill-rule:evenodd;stroke:#000;stroke-width:3;stroke-miterlimit:10;stroke-dasharray:none;stroke-opacity:1"/><path style="fill:#000;fill-opacity:1;fill-rule:evenodd;stroke:#000;stroke-width:2.98891997;stroke-linecap:butt;stroke-linejoin:miter;stroke-miterlimit:10;stroke-dasharray:none;stroke-opacity:1;marker-end:url(#marker4498)" id="path4484" d="m 418.07085,268 c 0,226.76394 0,227.61964 0,227.61964"/><path style="fill:#fff;fill-opacity:1;fill-rule:evenodd;stroke:#000;stroke-width:3;stroke-linecap:butt;stroke-linejoin:round;stroke-miterlimit:10;stroke-dasharray:none" id="path4870" d="m 379.18619,352.17913 77.82675,0 0,62.14172 -77.82675,0 z"/><path id="path4502" d="m 660.47862,500.1384 c 0,-226.76394 0,-227.61964 0,-227.61964" style="fill:#000;fill-opacity:1;fill-rule:evenodd;stroke:#000;stroke-width:2.98891997;stroke-linecap:butt;stroke-linejoin:miter;stroke-miterlimit:10;stroke-dasharray:none;stroke-opacity:1;marker-end:url(#marker4504)"/><path id="path4872" d="m 621.53653,352.17913 77.82674,0 0,62.14172 -77.82674,0 z" style="fill:#fff;fill-opacity:1;fill-rule:evenodd;stroke:#000;stroke-width:3;stroke-linecap:butt;stroke-linejoin:round;stroke-miterlimit:10;stroke-dasharray:none"/><flowRoot id="flowRoot4901" transform="translate(-144.20384,31.960865)" xml:space="preserve" style="font-style:normal;font-weight:400;font-size:17.5px;line-height:125%;font-family:sans-serif;text-align:end;letter-spacing:0;word-spacing:0;text-anchor:end;fill:#000;fill-opacity:1;stroke:none;stroke-width:1px;stroke-linecap:butt;stroke-linejoin:miter;stroke-opacity:1"><flowRegion id="flowRegion4903"><rect id="rect4905" width="197.141" height="40.632" x="382.243" y="108.857"/></flowRegion><flowPara id="flowPara4907" style="font-weight:700">controller</flowPara></flowRoot><flowRoot style="font-style:normal;font-weight:400;font-size:17.5px;line-height:125%;font-family:sans-serif;text-align:end;letter-spacing:0;word-spacing:0;text-anchor:end;fill:#000;fill-opacity:1;stroke:none;stroke-width:1px;stroke-linecap:butt;stroke-linejoin:miter;stroke-opacity:1" id="flowRoot4909" transform="translate(38.422331,54.019567)" xml:space="preserve"><flowRegion id="flowRegion4911"><rect id="rect4913" width="201.656" height="73.74" x="382.243" y="108.857"/></flowRegion><flowPara id="flowPara4915" style="font-weight:700">internal</flowPara><flowPara id="flowPara4917" style="font-weight:700">process model</flowPara></flowRoot><flowRoot style="font-style:normal;font-weight:400;font-size:17.5px;line-height:125%;font-family:sans-serif;text-align:end;letter-spacing:0;word-spacing:0;text-anchor:end;fill:#000;fill-opacity:1;stroke:none;stroke-width:1px;stroke-linecap:butt;stroke-linejoin:miter;stroke-opacity:1" id="flowRoot4935" transform="translate(-58.399511,400.67895)" xml:space="preserve"><flowRegion id="flowRegion4937"><rect id="rect4939" width="197.141" height="40.632" x="382.243" y="108.857"/></flowRegion><flowPara id="flowPara4941" style="font-weight:700">controlled process</flowPara></flowRoot><rect id="rect12768" width="85.149" height="71.287" x="635.644" y="153.149" rx="20" ry="20" style="fill:#acf;fill-opacity:1;stroke:#000;stroke-width:2.5;stroke-miterlimit:10;stroke-dasharray:none;stroke-dashoffset:0;stroke-opacity:1"/><g id="g20159" transform="translate(0,2.5505889)"><path style="fill:#000;fill-opacity:1;fill-rule:evenodd;stroke:#000;stroke-width:2.98891997;stroke-linecap:butt;stroke-linejoin:miter;stroke-miterlimit:10;stroke-dasharray:none;stroke-opacity:1;marker-end:url(#marker15439)" id="path15437" d="m 204.0195,564.97813 111.61964,0"/><path id="path18203" d="m 758.0195,564.97813 111.61964,0" style="fill:#000;fill-opacity:1;fill-rule:evenodd;stroke:#000;stroke-width:2.98891997;stroke-linecap:butt;stroke-linejoin:miter;stroke-miterlimit:10;stroke-dasharray:none;stroke-opacity:1;marker-end:url(#marker18205)"/></g><flowRoot id="flowRoot20163" transform="translate(-292.42749,423.55598)" xml:space="preserve" style="font-style:normal;font-weight:400;font-size:17.5px;line-height:125%;font-family:sans-serif;text-align:end;letter-spacing:0;word-spacing:0;text-anchor:end;fill:#000;fill-opacity:1;stroke:none;stroke-width:1px;stroke-linecap:butt;stroke-linejoin:miter;stroke-opacity:1"><flowRegion id="flowRegion20165"><rect id="rect20167" width="197.141" height="40.632" x="382.243" y="108.857"/></flowRegion><flowPara style="font-weight:700" id="flowPara20169">input</flowPara></flowRoot><flowRoot style="font-style:normal;font-weight:400;font-size:17.5px;line-height:125%;font-family:sans-serif;text-align:end;letter-spacing:0;word-spacing:0;text-anchor:end;fill:#000;fill-opacity:1;stroke:none;stroke-width:1px;stroke-linecap:butt;stroke-linejoin:miter;stroke-opacity:1" id="flowRoot20171" transform="translate(257.25568,423.55598)" xml:space="preserve"><flowRegion id="flowRegion20173"><rect id="rect20175" width="197.141" height="40.632" x="382.243" y="108.857"/></flowRegion><flowPara id="flowPara20177" style="font-weight:700">output</flowPara></flowRoot></g></svg>